<svg width="32" height="32" viewBox="0 0 24 24" fill="none" xmlns="http://www.w3.org/2000/svg">
  <path fill="#fff" fill-rule="evenodd" clip-rule="evenodd" d="M12 2C6.477 2 2 6.59 2 12.253c0 4.53 2.865 8.37 6.839 9.727.5.094.683-.223.683-.494 0-.244-.009-.89-.014-1.747-2.782.62-3.369-1.375-3.369-1.375-.455-1.184-1.11-1.5-1.11-1.5-.908-.636.069-.623.069-.623 1.004.073 1.532 1.057 1.532 1.057.892 1.565 2.34 1.113 2.91.851.091-.662.35-1.113.636-1.369-2.221-.259-4.556-1.138-4.556-5.063 0-1.118.39-2.033 1.03-2.75-.103-.26-.446-1.302.098-2.713 0 0 .84-.276 2.75 1.05A9.32 9.32 0 0 1 12 6.987a9.32 9.32 0 0 1 2.504.346c1.91-1.326 2.748-1.05 2.748-1.05.546 1.411.203 2.454.1 2.713.64.717 1.028 1.632 1.028 2.75 0 3.935-2.339 4.801-4.566 5.055.359.317.679.944.679 1.902 0 1.372-.013 2.479-.013 2.815 0 .274.18.593.688.493C19.138 20.62 22 16.782 22 12.253 22 6.59 17.523 2 12 2Z"/>
</svg>
