<svg width="160" height="160" viewBox="0 0 160 160" fill="none" xmlns="http://www.w3.org/2000/svg">
  <path d="M80 10 140.6 45v70L80 150l-60.6-35V45L80 10Z" fill="#1F69B3"/>
  <path d="M80 22.5 129.8 51.3v57.4L80 137.5l-49.8-28.8V51.3L80 22.5Z" fill="#275FA6"/>
  <path d="M80.9 110.7c-18.6 0-31.7-12.7-31.7-30.7 0-18.3 13.2-30.8 31.7-30.8 11.5 0 21.4 5.3 26.6 14.2L94.6 71c-2.7-5.1-7.6-8-13.5-8-9.3 0-15.4 6.8-15.4 17s6.1 17 15.4 17c6.2 0 11.2-3 13.9-8.5l13.1 7.1c-5 9.5-15.3 15.1-27.2 15.1Z" fill="white"/>
  <path d="M112.5 76.2h8.4v-8.5h8.2v8.5h8.5v8h-8.5v8.6h-8.2v-8.6h-8.4v-8Zm-27.4 0h8.4v-8.5h8.2v8.5h8.5v8h-8.5v8.6h-8.2v-8.6h-8.4v-8Z" fill="white"/>
</svg>
