<svg width="160" height="160" viewBox="0 0 160 160" fill="none" xmlns="http://www.w3.org/2000/svg">
  <path d="M80 10c19.6 22.7 33.6 47.8 33.6 78.5 0 24.8-13.1 44.4-33.6 61.5-20.5-17.1-33.6-36.7-33.6-61.5C46.4 57.8 60.4 32.7 80 10Z" fill="#10AA50"/>
  <path d="M80 10v140c20.5-17.1 33.6-36.7 33.6-61.5C113.6 57.8 99.6 32.7 80 10Z" fill="#12924F"/>
  <path d="M80 29.5c10.7 17.5 18.2 37.1 18.2 58.8 0 17.3-6.5 31.3-18.2 44.8-11.7-13.5-18.2-27.5-18.2-44.8 0-21.7 7.5-41.3 18.2-58.8Z" fill="#B8E986" opacity=".5"/>
  <path d="M80 54v82" stroke="#063F25" stroke-width="5" stroke-linecap="round"/>
</svg>
